<mxfile host="65bd71144e">
    <diagram id="HgxuDFO7ci0bPYLWqyz5" name="Page-1">
        <mxGraphModel dx="1153" dy="976" grid="1" gridSize="10" guides="1" tooltips="1" connect="1" arrows="1" fold="1" page="1" pageScale="1" pageWidth="827" pageHeight="1169" background="#FFE6CC" math="0" shadow="1">
            <root>
                <mxCell id="0"/>
                <mxCell id="1" parent="0"/>
                <object label="&lt;h1 style=&quot;font-size: 15px&quot;&gt;&lt;font style=&quot;font-size: 27px&quot;&gt;Домашняя работа&lt;/font&gt;&lt;/h1&gt;&lt;p style=&quot;font-size: 15px&quot;&gt;&lt;font style=&quot;font-size: 15px&quot;&gt;ко второму занятию курсу &quot;Введение в программирование (семинары)&quot;&lt;/font&gt;&lt;/p&gt;&lt;p style=&quot;font-size: 15px&quot;&gt;&lt;span dir=&quot;ltr&quot; style=&quot;left: 77.8482px ; top: 130.422px ; font-size: 14.372px ; font-family: sans-serif ; transform: scalex(1.0204)&quot;&gt;Задача1:&lt;/span&gt;&lt;span dir=&quot;ltr&quot; style=&quot;left: 138.052px ; top: 130.422px ; font-size: 14.372px ; font-family: sans-serif&quot;&gt; &lt;/span&gt;&lt;span dir=&quot;ltr&quot; style=&quot;left: 142.036px ; top: 130.422px ; font-size: 14.372px ; font-family: sans-serif ; transform: scalex(1.0812)&quot;&gt;Нахождение индексов максимального и минимального элемента массива.&lt;/span&gt;&lt;br&gt;&lt;/p&gt;&lt;font style=&quot;font-size: 15px&quot;&gt;𝖒𝖎𝖘𝖙𝖊𝖗𝖆𝖇𝖛𝖎𝖗&lt;br&gt;&lt;/font&gt;&lt;p style=&quot;font-size: 15px&quot;&gt;&lt;a href=&quot;https://gb.ru/users/8831713&quot;&gt;&lt;font style=&quot;font-size: 15px&quot;&gt;GeekBrains&lt;/font&gt;&lt;/a&gt;&lt;/p&gt;&lt;p style=&quot;font-size: 15px&quot;&gt;&lt;a href=&quot;https://github.com/misterabvir/gb_algorithms/&quot;&gt;&lt;font style=&quot;font-size: 15px&quot;&gt;Github&lt;/font&gt;&lt;/a&gt;&lt;/p&gt;" id="23">
                    <mxCell style="text;html=1;strokeColor=none;fillColor=none;spacing=5;spacingTop=-20;whiteSpace=wrap;overflow=hidden;rounded=0;fontSize=14;fontColor=#1A1A1A;fontStyle=1" parent="1" vertex="1">
                        <mxGeometry x="40" y="40" width="750" height="240" as="geometry"/>
                    </mxCell>
                </object>
                <mxCell id="fwJVP8VtZSIYC7BJ0X0V-26" value="" style="edgeStyle=orthogonalEdgeStyle;rounded=1;orthogonalLoop=1;jettySize=auto;html=1;labelBackgroundColor=none;strokeColor=#1A1A1A;strokeWidth=2;fontColor=#1A1A1A;" parent="1" source="fwJVP8VtZSIYC7BJ0X0V-23" target="fwJVP8VtZSIYC7BJ0X0V-25" edge="1">
                    <mxGeometry relative="1" as="geometry"/>
                </mxCell>
                <mxCell id="fwJVP8VtZSIYC7BJ0X0V-23" value="minIndex, maxIndex" style="shape=document;whiteSpace=wrap;html=1;boundedLbl=1;fontSize=14;fillColor=#f9f7ed;strokeColor=#36393d;fontColor=#1A1A1A;rounded=1;strokeWidth=2;fontStyle=1;" parent="1" vertex="1">
                    <mxGeometry x="499.94" y="492.5" width="120" height="75" as="geometry"/>
                </mxCell>
                <mxCell id="fwJVP8VtZSIYC7BJ0X0V-25" value="END" style="ellipse;whiteSpace=wrap;html=1;rounded=1;fillColor=#f9f7ed;strokeColor=#36393d;strokeWidth=2;fontColor=#1A1A1A;fontStyle=1;fontSize=14;" parent="1" vertex="1">
                    <mxGeometry x="499.94" y="610" width="120" height="80" as="geometry"/>
                </mxCell>
                <mxCell id="cQfYgWPY9KQmNeoO3Wew-23" value="" style="edgeStyle=none;curved=1;rounded=1;html=1;fontSize=14;fontColor=#1A1A1A;labelBackgroundColor=none;strokeColor=#1A1A1A;strokeWidth=2;" parent="1" source="cQfYgWPY9KQmNeoO3Wew-24" target="cQfYgWPY9KQmNeoO3Wew-26" edge="1">
                    <mxGeometry relative="1" as="geometry"/>
                </mxCell>
                <mxCell id="cQfYgWPY9KQmNeoO3Wew-24" value="START" style="ellipse;whiteSpace=wrap;html=1;rounded=1;fillColor=#f9f7ed;strokeColor=#36393d;strokeWidth=2;fontColor=#1A1A1A;fontStyle=1;fontSize=14;" parent="1" vertex="1">
                    <mxGeometry x="259.94" y="190" width="120" height="80" as="geometry"/>
                </mxCell>
                <mxCell id="cQfYgWPY9KQmNeoO3Wew-25" value="" style="edgeStyle=orthogonalEdgeStyle;rounded=0;orthogonalLoop=1;jettySize=auto;html=1;strokeColor=#1A1A1A;strokeWidth=2;" parent="1" source="cQfYgWPY9KQmNeoO3Wew-26" target="cQfYgWPY9KQmNeoO3Wew-28" edge="1">
                    <mxGeometry relative="1" as="geometry"/>
                </mxCell>
                <mxCell id="cQfYgWPY9KQmNeoO3Wew-26" value="size&lt;br&gt;numbers[size]" style="shape=parallelogram;perimeter=parallelogramPerimeter;whiteSpace=wrap;html=1;fixedSize=1;fontSize=14;fillColor=#f9f7ed;strokeColor=#36393d;fontColor=#1A1A1A;rounded=1;strokeWidth=2;fontStyle=1;" parent="1" vertex="1">
                    <mxGeometry x="239.94" y="310" width="160" height="40" as="geometry"/>
                </mxCell>
                <mxCell id="cQfYgWPY9KQmNeoO3Wew-33" value="" style="edgeStyle=orthogonalEdgeStyle;rounded=1;orthogonalLoop=1;jettySize=auto;html=1;labelBackgroundColor=none;strokeColor=#1A1A1A;strokeWidth=2;fontColor=#1A1A1A;" parent="1" source="cQfYgWPY9KQmNeoO3Wew-28" target="cQfYgWPY9KQmNeoO3Wew-32" edge="1">
                    <mxGeometry relative="1" as="geometry"/>
                </mxCell>
                <mxCell id="cQfYgWPY9KQmNeoO3Wew-28" value="index = 1&amp;nbsp;&lt;br&gt;minIndex = 0&lt;br&gt;maxIndex = 0" style="rounded=1;whiteSpace=wrap;html=1;fontSize=14;fillColor=#f9f7ed;strokeColor=#36393d;fontColor=#1A1A1A;strokeWidth=2;fontStyle=1;" parent="1" vertex="1">
                    <mxGeometry x="259.94" y="390" width="120" height="60" as="geometry"/>
                </mxCell>
                <mxCell id="TfGkW2T2U8pZ0mx2bVF4-23" value="NO" style="edgeStyle=orthogonalEdgeStyle;rounded=1;orthogonalLoop=1;jettySize=auto;html=1;strokeWidth=2;strokeColor=#1A1A1A;fontColor=#1A1A1A;labelBackgroundColor=none;" parent="1" source="cQfYgWPY9KQmNeoO3Wew-32" target="fwJVP8VtZSIYC7BJ0X0V-23" edge="1">
                    <mxGeometry x="-0.92" y="10" relative="1" as="geometry">
                        <mxPoint as="offset"/>
                    </mxGeometry>
                </mxCell>
                <mxCell id="TfGkW2T2U8pZ0mx2bVF4-25" value="YES" style="edgeStyle=orthogonalEdgeStyle;rounded=1;orthogonalLoop=1;jettySize=auto;html=1;labelBackgroundColor=none;strokeColor=#1A1A1A;strokeWidth=2;fontColor=#1A1A1A;" parent="1" source="cQfYgWPY9KQmNeoO3Wew-32" target="TfGkW2T2U8pZ0mx2bVF4-24" edge="1">
                    <mxGeometry y="30" relative="1" as="geometry">
                        <mxPoint as="offset"/>
                    </mxGeometry>
                </mxCell>
                <mxCell id="cQfYgWPY9KQmNeoO3Wew-32" value="index &amp;lt; size" style="shape=hexagon;perimeter=hexagonPerimeter2;whiteSpace=wrap;html=1;fixedSize=1;fontSize=14;fillColor=#f9f7ed;strokeColor=#36393d;fontColor=#1A1A1A;rounded=1;strokeWidth=2;fontStyle=1;" parent="1" vertex="1">
                    <mxGeometry x="259.94" y="510" width="120" height="40" as="geometry"/>
                </mxCell>
                <mxCell id="TfGkW2T2U8pZ0mx2bVF4-27" value="YES" style="edgeStyle=orthogonalEdgeStyle;rounded=1;orthogonalLoop=1;jettySize=auto;html=1;labelBackgroundColor=none;strokeColor=#1A1A1A;strokeWidth=2;fontColor=#1A1A1A;" parent="1" source="TfGkW2T2U8pZ0mx2bVF4-24" target="TfGkW2T2U8pZ0mx2bVF4-26" edge="1">
                    <mxGeometry x="-0.5" y="30" relative="1" as="geometry">
                        <mxPoint as="offset"/>
                    </mxGeometry>
                </mxCell>
                <mxCell id="TfGkW2T2U8pZ0mx2bVF4-32" value="NO" style="edgeStyle=orthogonalEdgeStyle;rounded=1;orthogonalLoop=1;jettySize=auto;html=1;labelBackgroundColor=none;strokeColor=#1A1A1A;strokeWidth=2;fontColor=#1A1A1A;" parent="1" source="TfGkW2T2U8pZ0mx2bVF4-24" edge="1">
                    <mxGeometry x="-0.9394" y="20" relative="1" as="geometry">
                        <mxPoint x="329.94" y="810" as="targetPoint"/>
                        <Array as="points">
                            <mxPoint x="459.94" y="650"/>
                            <mxPoint x="459.94" y="810"/>
                        </Array>
                        <mxPoint as="offset"/>
                    </mxGeometry>
                </mxCell>
                <mxCell id="TfGkW2T2U8pZ0mx2bVF4-24" value="numbers[minIndex] &amp;gt; numbers[index]" style="rhombus;whiteSpace=wrap;html=1;fontSize=14;fillColor=#f9f7ed;strokeColor=#36393d;fontColor=#1A1A1A;rounded=1;strokeWidth=2;fontStyle=1;" parent="1" vertex="1">
                    <mxGeometry x="219.94" y="590" width="200" height="120" as="geometry"/>
                </mxCell>
                <mxCell id="TfGkW2T2U8pZ0mx2bVF4-31" style="edgeStyle=orthogonalEdgeStyle;rounded=1;orthogonalLoop=1;jettySize=auto;html=1;entryX=0.5;entryY=0;entryDx=0;entryDy=0;labelBackgroundColor=none;strokeColor=#1A1A1A;strokeWidth=2;fontColor=#1A1A1A;" parent="1" source="TfGkW2T2U8pZ0mx2bVF4-26" target="TfGkW2T2U8pZ0mx2bVF4-29" edge="1">
                    <mxGeometry relative="1" as="geometry"/>
                </mxCell>
                <mxCell id="TfGkW2T2U8pZ0mx2bVF4-26" value="minIndex = index" style="rounded=1;whiteSpace=wrap;html=1;fontSize=14;fillColor=#f9f7ed;strokeColor=#36393d;fontColor=#1A1A1A;strokeWidth=2;fontStyle=1;" parent="1" vertex="1">
                    <mxGeometry x="239.94" y="750" width="160" height="40" as="geometry"/>
                </mxCell>
                <mxCell id="TfGkW2T2U8pZ0mx2bVF4-28" value="YES" style="edgeStyle=orthogonalEdgeStyle;rounded=1;orthogonalLoop=1;jettySize=auto;html=1;labelBackgroundColor=none;strokeColor=#1A1A1A;strokeWidth=2;fontColor=#1A1A1A;" parent="1" source="TfGkW2T2U8pZ0mx2bVF4-29" target="TfGkW2T2U8pZ0mx2bVF4-30" edge="1">
                    <mxGeometry x="-0.5" y="20" relative="1" as="geometry">
                        <mxPoint as="offset"/>
                    </mxGeometry>
                </mxCell>
                <mxCell id="TfGkW2T2U8pZ0mx2bVF4-36" value="NO" style="edgeStyle=orthogonalEdgeStyle;rounded=1;orthogonalLoop=1;jettySize=auto;html=1;labelBackgroundColor=none;strokeColor=#1A1A1A;strokeWidth=2;fontColor=#1A1A1A;" parent="1" source="TfGkW2T2U8pZ0mx2bVF4-29" edge="1">
                    <mxGeometry x="-0.9394" y="20" relative="1" as="geometry">
                        <mxPoint x="329.94" y="1050" as="targetPoint"/>
                        <Array as="points">
                            <mxPoint x="459.94" y="890"/>
                            <mxPoint x="459.94" y="1050"/>
                        </Array>
                        <mxPoint as="offset"/>
                    </mxGeometry>
                </mxCell>
                <mxCell id="TfGkW2T2U8pZ0mx2bVF4-29" value="numbers[maxIndex] &amp;lt; numbers[index]" style="rhombus;whiteSpace=wrap;html=1;fontSize=14;fillColor=#f9f7ed;strokeColor=#36393d;fontColor=#1A1A1A;rounded=1;strokeWidth=2;fontStyle=1;" parent="1" vertex="1">
                    <mxGeometry x="219.94" y="830" width="200" height="120" as="geometry"/>
                </mxCell>
                <mxCell id="TfGkW2T2U8pZ0mx2bVF4-35" value="" style="edgeStyle=orthogonalEdgeStyle;rounded=1;orthogonalLoop=1;jettySize=auto;html=1;labelBackgroundColor=none;strokeColor=#1A1A1A;strokeWidth=2;fontColor=#1A1A1A;" parent="1" source="TfGkW2T2U8pZ0mx2bVF4-30" target="TfGkW2T2U8pZ0mx2bVF4-34" edge="1">
                    <mxGeometry relative="1" as="geometry"/>
                </mxCell>
                <mxCell id="TfGkW2T2U8pZ0mx2bVF4-30" value="maxIndex = index" style="rounded=1;whiteSpace=wrap;html=1;fontSize=14;fillColor=#f9f7ed;strokeColor=#36393d;fontColor=#1A1A1A;strokeWidth=2;fontStyle=1;" parent="1" vertex="1">
                    <mxGeometry x="239.94" y="990" width="160" height="40" as="geometry"/>
                </mxCell>
                <mxCell id="TfGkW2T2U8pZ0mx2bVF4-37" style="edgeStyle=orthogonalEdgeStyle;rounded=1;orthogonalLoop=1;jettySize=auto;html=1;labelBackgroundColor=none;strokeColor=#1A1A1A;strokeWidth=2;fontColor=#1A1A1A;" parent="1" source="TfGkW2T2U8pZ0mx2bVF4-34" edge="1">
                    <mxGeometry relative="1" as="geometry">
                        <mxPoint x="319.94" y="470" as="targetPoint"/>
                        <Array as="points">
                            <mxPoint x="199.94" y="1090"/>
                            <mxPoint x="199.94" y="470"/>
                        </Array>
                    </mxGeometry>
                </mxCell>
                <mxCell id="TfGkW2T2U8pZ0mx2bVF4-34" value="index = index + 1" style="whiteSpace=wrap;html=1;fontSize=14;fillColor=#f9f7ed;strokeColor=#36393d;fontColor=#1A1A1A;rounded=1;strokeWidth=2;fontStyle=1;" parent="1" vertex="1">
                    <mxGeometry x="239.94" y="1070" width="160" height="40" as="geometry"/>
                </mxCell>
            </root>
        </mxGraphModel>
    </diagram>
</mxfile>